solid OpenSCAD_Model
  facet normal -0.957826 0 0.287348
    outer loop
      vertex -3.25 0 4.5
      vertex -0.0999994 1 15
      vertex -3.25 1 4.5
    endloop
  endfacet
  facet normal -0.957826 0 0.287348
    outer loop
      vertex -0.0999994 1 15
      vertex -3.25 0 4.5
      vertex -0.0999994 0 15
    endloop
  endfacet
  facet normal -1 0 0
    outer loop
      vertex 0 41 4.5
      vertex 0 60 15
      vertex 0 60 4.5
    endloop
  endfacet
  facet normal -1 -0 0
    outer loop
      vertex 0 60 15
      vertex 0 41 4.5
      vertex 0 41 15
    endloop
  endfacet
  facet normal -1 0 0
    outer loop
      vertex 0 21 4.5
      vertex 0 40 15
      vertex 0 40 4.5
    endloop
  endfacet
  facet normal -1 -0 0
    outer loop
      vertex 0 40 15
      vertex 0 21 4.5
      vertex 0 21 15
    endloop
  endfacet
  facet normal -1 0 0
    outer loop
      vertex 0 1 4.5
      vertex 0 20 15
      vertex 0 20 4.5
    endloop
  endfacet
  facet normal -1 -0 0
    outer loop
      vertex 0 20 15
      vertex 0 1 4.5
      vertex 0 1 15
    endloop
  endfacet
  facet normal -1 0 0
    outer loop
      vertex 0 0 1
      vertex 0 61 3
      vertex 0 61 0.999999
    endloop
  endfacet
  facet normal -1 -0 0
    outer loop
      vertex 0 61 3
      vertex 0 0 1
      vertex 0 0 3
    endloop
  endfacet
  facet normal -0 0 1
    outer loop
      vertex -0.0999994 21 15
      vertex 0 20 15
      vertex 0 21 15
    endloop
  endfacet
  facet normal 0 0 1
    outer loop
      vertex 0 20 15
      vertex -0.0999994 21 15
      vertex -0.0999994 20 15
    endloop
  endfacet
  facet normal -0 0 1
    outer loop
      vertex -0.0999994 41 15
      vertex 0 40 15
      vertex 0 41 15
    endloop
  endfacet
  facet normal 0 0 1
    outer loop
      vertex 0 40 15
      vertex -0.0999994 41 15
      vertex -0.0999994 40 15
    endloop
  endfacet
  facet normal -0 0 1
    outer loop
      vertex 26.5 61 15
      vertex 26.6 60 15
      vertex 26.6 61 15
    endloop
  endfacet
  facet normal 0 0 1
    outer loop
      vertex 26.5 61 15
      vertex 26.5 60 15
      vertex 26.6 60 15
    endloop
  endfacet
  facet normal 0 0 1
    outer loop
      vertex 0 60 15
      vertex 26.5 60 15
      vertex 26.5 61 15
    endloop
  endfacet
  facet normal 0 0 1
    outer loop
      vertex 26.5 60 15
      vertex 0 60 15
      vertex 26.5 41 15
    endloop
  endfacet
  facet normal 0 0 1
    outer loop
      vertex 26.5 41 15
      vertex 0 41 15
      vertex 26.5 40 15
    endloop
  endfacet
  facet normal 0 0 1
    outer loop
      vertex 0 40 15
      vertex 26.5 40 15
      vertex 0 41 15
    endloop
  endfacet
  facet normal 0 0 1
    outer loop
      vertex 0 21 15
      vertex 26.5 21 15
      vertex 0 40 15
    endloop
  endfacet
  facet normal 0 0 1
    outer loop
      vertex 26.5 21 15
      vertex 0 21 15
      vertex 26.5 20 15
    endloop
  endfacet
  facet normal 0 0 1
    outer loop
      vertex 26.5 41 15
      vertex 0 60 15
      vertex 0 41 15
    endloop
  endfacet
  facet normal -0 0 1
    outer loop
      vertex -0.0999994 61 15
      vertex 0 60 15
      vertex 26.5 61 15
    endloop
  endfacet
  facet normal 0 0 1
    outer loop
      vertex 0 60 15
      vertex -0.0999994 61 15
      vertex -0.0999994 60 15
    endloop
  endfacet
  facet normal -0 0 1
    outer loop
      vertex 26.5 41 15
      vertex 26.6 40 15
      vertex 26.6 41 15
    endloop
  endfacet
  facet normal 0 0 1
    outer loop
      vertex 26.6 40 15
      vertex 26.5 41 15
      vertex 26.5 40 15
    endloop
  endfacet
  facet normal -0 0 1
    outer loop
      vertex 26.5 21 15
      vertex 26.6 20 15
      vertex 26.6 21 15
    endloop
  endfacet
  facet normal 0 0 1
    outer loop
      vertex 26.6 20 15
      vertex 26.5 21 15
      vertex 26.5 20 15
    endloop
  endfacet
  facet normal -0 0 1
    outer loop
      vertex 26.5 1 15
      vertex 26.6 -1.2246e-017 15
      vertex 26.6 1 15
    endloop
  endfacet
  facet normal 0 0 1
    outer loop
      vertex 26.6 -1.2246e-017 15
      vertex 26.5 1 15
      vertex 26.5 0 15
    endloop
  endfacet
  facet normal 0 0 1
    outer loop
      vertex 26.5 40 15
      vertex 0 40 15
      vertex 26.5 21 15
    endloop
  endfacet
  facet normal 0 0 1
    outer loop
      vertex 0 20 15
      vertex 26.5 20 15
      vertex 0 21 15
    endloop
  endfacet
  facet normal 0 0 1
    outer loop
      vertex 26.5 20 15
      vertex 0 20 15
      vertex 26.5 1 15
    endloop
  endfacet
  facet normal 0 0 1
    outer loop
      vertex 0 1 15
      vertex 26.5 1 15
      vertex 0 20 15
    endloop
  endfacet
  facet normal 0 0 1
    outer loop
      vertex 26.5 1 15
      vertex 0 1 15
      vertex 26.5 0 15
    endloop
  endfacet
  facet normal 0 0 1
    outer loop
      vertex -0.0999994 0 15
      vertex 0 1 15
      vertex -0.0999994 1 15
    endloop
  endfacet
  facet normal 0 0 1
    outer loop
      vertex 0 1 15
      vertex -0.0999994 0 15
      vertex 26.5 0 15
    endloop
  endfacet
  facet normal -1 0 0
    outer loop
      vertex -3.25 61 3
      vertex -3.25 60 4.5
      vertex -3.25 61 4.5
    endloop
  endfacet
  facet normal -1 0 0
    outer loop
      vertex -3.25 61 3
      vertex -3.25 41 4.5
      vertex -3.25 60 4.5
    endloop
  endfacet
  facet normal -1 0 0
    outer loop
      vertex -3.25 61 3
      vertex -3.25 40 4.5
      vertex -3.25 41 4.5
    endloop
  endfacet
  facet normal -1 0 0
    outer loop
      vertex -3.25 61 3
      vertex -3.25 21 4.5
      vertex -3.25 40 4.5
    endloop
  endfacet
  facet normal -1 0 0
    outer loop
      vertex -3.25 0 3
      vertex -3.25 21 4.5
      vertex -3.25 61 3
    endloop
  endfacet
  facet normal -1 -0 0
    outer loop
      vertex -3.25 21 4.5
      vertex -3.25 0 3
      vertex -3.25 20 4.5
    endloop
  endfacet
  facet normal -1 -0 0
    outer loop
      vertex -3.25 20 4.5
      vertex -3.25 0 3
      vertex -3.25 1 4.5
    endloop
  endfacet
  facet normal -1 -0 0
    outer loop
      vertex -3.25 1 4.5
      vertex -3.25 0 3
      vertex -3.25 0 4.5
    endloop
  endfacet
  facet normal 0 -1 0
    outer loop
      vertex -0.0999994 0 15
      vertex 3 0 13.5
      vertex 26.5 0 15
    endloop
  endfacet
  facet normal 0 -1 0
    outer loop
      vertex -0.0999994 0 15
      vertex 1.5 0 12
      vertex 3 0 13.5
    endloop
  endfacet
  facet normal 0 -1 0
    outer loop
      vertex -3.25 0 4.5
      vertex 1.5 0 12
      vertex -0.0999994 0 15
    endloop
  endfacet
  facet normal 0 -1 0
    outer loop
      vertex 0 0 3
      vertex -3.25 0 4.5
      vertex -3.25 0 3
    endloop
  endfacet
  facet normal 0 -1 0
    outer loop
      vertex -3.25 0 4.5
      vertex 0 0 3
      vertex 1.5 0 12
    endloop
  endfacet
  facet normal 0 -1 0
    outer loop
      vertex 1.5 0 -1.5
      vertex 0 0 3
      vertex 0 0 1
    endloop
  endfacet
  facet normal 0 -1 0
    outer loop
      vertex -0.734731 0 0.761271
      vertex 0 0 1
      vertex -0.386271 0 0.93882
    endloop
  endfacet
  facet normal 0 -1 0
    outer loop
      vertex -1.01127 0 0.484731
      vertex 0 0 1
      vertex -0.734731 0 0.761271
    endloop
  endfacet
  facet normal 0 -1 0
    outer loop
      vertex -1.18882 0 0.136271
      vertex 0 0 1
      vertex -1.01127 0 0.484731
    endloop
  endfacet
  facet normal 0 -1 0
    outer loop
      vertex -1.25 0 -0.25
      vertex 0 0 1
      vertex -1.18882 0 0.136271
    endloop
  endfacet
  facet normal 0 -1 0
    outer loop
      vertex -1.18882 0 -0.636271
      vertex 0 0 1
      vertex -1.25 0 -0.25
    endloop
  endfacet
  facet normal 0 -1 0
    outer loop
      vertex -1.01127 0 -0.984731
      vertex 0 0 1
      vertex -1.18882 0 -0.636271
    endloop
  endfacet
  facet normal 0 -1 0
    outer loop
      vertex -0.734731 0 -1.26127
      vertex 0 0 1
      vertex -1.01127 0 -0.984731
    endloop
  endfacet
  facet normal 0 -1 0
    outer loop
      vertex -0.386271 0 -1.43882
      vertex 0 0 1
      vertex -0.734731 0 -1.26127
    endloop
  endfacet
  facet normal 0 -1 0
    outer loop
      vertex 0 0 -1.5
      vertex 0 0 1
      vertex -0.386271 0 -1.43882
    endloop
  endfacet
  facet normal 0 -1 0
    outer loop
      vertex 1.5 0 -1.5
      vertex 0 0 1
      vertex 0 0 -1.5
    endloop
  endfacet
  facet normal 0 -1 0
    outer loop
      vertex 0 0 3
      vertex 1.5 0 -1.5
      vertex 1.5 0 12
    endloop
  endfacet
  facet normal 0 -1 0
    outer loop
      vertex 23.5 0 13.5
      vertex 26.5 0 15
      vertex 3 0 13.5
    endloop
  endfacet
  facet normal 0 -1 0
    outer loop
      vertex 23.5 0 13.5
      vertex 26.5 0 13.5
      vertex 26.5 0 15
    endloop
  endfacet
  facet normal -0 -1 0
    outer loop
      vertex 26.5 0 13.5
      vertex 23.5 0 13.5
      vertex 25 0 12
    endloop
  endfacet
  facet normal 0 1 -0
    outer loop
      vertex 0 1 4.5
      vertex -0.0999994 1 15
      vertex 0 1 15
    endloop
  endfacet
  facet normal 0 1 0
    outer loop
      vertex -0.0999994 1 15
      vertex 0 1 4.5
      vertex -3.25 1 4.5
    endloop
  endfacet
  facet normal -0.957826 0 0.287348
    outer loop
      vertex -3.25 20 4.5
      vertex -0.0999994 21 15
      vertex -3.25 21 4.5
    endloop
  endfacet
  facet normal -0.957826 0 0.287348
    outer loop
      vertex -0.0999994 21 15
      vertex -3.25 20 4.5
      vertex -0.0999994 20 15
    endloop
  endfacet
  facet normal 0 -1 0
    outer loop
      vertex 0 20 4.5
      vertex -0.0999994 20 15
      vertex -3.25 20 4.5
    endloop
  endfacet
  facet normal 0 -1 0
    outer loop
      vertex -0.0999994 20 15
      vertex 0 20 4.5
      vertex 0 20 15
    endloop
  endfacet
  facet normal 0 1 -0
    outer loop
      vertex 0 21 4.5
      vertex -0.0999994 21 15
      vertex 0 21 15
    endloop
  endfacet
  facet normal 0 1 0
    outer loop
      vertex -0.0999994 21 15
      vertex 0 21 4.5
      vertex -3.25 21 4.5
    endloop
  endfacet
  facet normal -0.957826 0 0.287348
    outer loop
      vertex -3.25 40 4.5
      vertex -0.0999994 41 15
      vertex -3.25 41 4.5
    endloop
  endfacet
  facet normal -0.957826 0 0.287348
    outer loop
      vertex -0.0999994 41 15
      vertex -3.25 40 4.5
      vertex -0.0999994 40 15
    endloop
  endfacet
  facet normal 0 -1 0
    outer loop
      vertex 0 40 4.5
      vertex -0.0999994 40 15
      vertex -3.25 40 4.5
    endloop
  endfacet
  facet normal 0 -1 0
    outer loop
      vertex -0.0999994 40 15
      vertex 0 40 4.5
      vertex 0 40 15
    endloop
  endfacet
  facet normal 0 1 -0
    outer loop
      vertex 0 41 4.5
      vertex -0.0999994 41 15
      vertex 0 41 15
    endloop
  endfacet
  facet normal 0 1 0
    outer loop
      vertex -0.0999994 41 15
      vertex 0 41 4.5
      vertex -3.25 41 4.5
    endloop
  endfacet
  facet normal -0.957826 0 0.287348
    outer loop
      vertex -3.25 60 4.5
      vertex -0.0999994 61 15
      vertex -3.25 61 4.5
    endloop
  endfacet
  facet normal -0.957826 0 0.287348
    outer loop
      vertex -0.0999994 61 15
      vertex -3.25 60 4.5
      vertex -0.0999994 60 15
    endloop
  endfacet
  facet normal 0 -1 0
    outer loop
      vertex 0 60 4.5
      vertex -0.0999994 60 15
      vertex -3.25 60 4.5
    endloop
  endfacet
  facet normal 0 -1 0
    outer loop
      vertex -0.0999994 60 15
      vertex 0 60 4.5
      vertex 0 60 15
    endloop
  endfacet
  facet normal -0 1 0
    outer loop
      vertex 23.5 61 13.5
      vertex 25 61 13.5
      vertex 25 61 12
    endloop
  endfacet
  facet normal 0 1 0
    outer loop
      vertex 25 61 13.5
      vertex 26.5 61 15
      vertex 26.5 61 13.5
    endloop
  endfacet
  facet normal 0 1 0
    outer loop
      vertex 23.5 61 13.5
      vertex 26.5 61 15
      vertex 25 61 13.5
    endloop
  endfacet
  facet normal 0 1 0
    outer loop
      vertex 3 61 13.5
      vertex 26.5 61 15
      vertex 23.5 61 13.5
    endloop
  endfacet
  facet normal 0 1 0
    outer loop
      vertex 26.5 61 15
      vertex 3 61 13.5
      vertex -0.0999994 61 15
    endloop
  endfacet
  facet normal 0 1 0
    outer loop
      vertex 3 61 13.5
      vertex 1.5 61 12
      vertex -0.0999994 61 15
    endloop
  endfacet
  facet normal 0 1 0
    outer loop
      vertex 1.5 61 12
      vertex -3.25 61 4.5
      vertex -0.0999994 61 15
    endloop
  endfacet
  facet normal 0 1 0
    outer loop
      vertex 1.5 61 12
      vertex 0 61 3
      vertex -3.25 61 4.5
    endloop
  endfacet
  facet normal 0 1 -0
    outer loop
      vertex 1.5 61 -1.5
      vertex 0 61 3
      vertex 1.5 61 12
    endloop
  endfacet
  facet normal 0 1 0
    outer loop
      vertex 0 61 0.999999
      vertex -0.734731 61 0.761271
      vertex -0.386271 61 0.93882
    endloop
  endfacet
  facet normal 0 1 0
    outer loop
      vertex 0 61 0.999999
      vertex -1.01127 61 0.484731
      vertex -0.734731 61 0.761271
    endloop
  endfacet
  facet normal 0 1 0
    outer loop
      vertex 0 61 0.999999
      vertex -1.18882 61 0.136271
      vertex -1.01127 61 0.484731
    endloop
  endfacet
  facet normal 0 1 0
    outer loop
      vertex 0 61 0.999999
      vertex -1.25 61 -0.25
      vertex -1.18882 61 0.136271
    endloop
  endfacet
  facet normal 0 1 0
    outer loop
      vertex 0 61 0.999999
      vertex -1.18882 61 -0.636271
      vertex -1.25 61 -0.25
    endloop
  endfacet
  facet normal 0 1 0
    outer loop
      vertex 0 61 0.999999
      vertex -1.01127 61 -0.984731
      vertex -1.18882 61 -0.636271
    endloop
  endfacet
  facet normal 0 1 0
    outer loop
      vertex 0 61 0.999999
      vertex -0.734731 61 -1.26127
      vertex -1.01127 61 -0.984731
    endloop
  endfacet
  facet normal 0 1 0
    outer loop
      vertex 0 61 0.999999
      vertex -0.386271 61 -1.43882
      vertex -0.734731 61 -1.26127
    endloop
  endfacet
  facet normal 0 1 0
    outer loop
      vertex 0 61 3
      vertex 1.5 61 -1.5
      vertex 0 61 0.999999
    endloop
  endfacet
  facet normal 0 1 0
    outer loop
      vertex 0 61 -1.5
      vertex 0 61 0.999999
      vertex 1.5 61 -1.5
    endloop
  endfacet
  facet normal 0 1 0
    outer loop
      vertex 0 61 0.999999
      vertex 0 61 -1.5
      vertex -0.386271 61 -1.43882
    endloop
  endfacet
  facet normal 0 1 0
    outer loop
      vertex -3.25 61 4.5
      vertex 0 61 3
      vertex -3.25 61 3
    endloop
  endfacet
  facet normal -0.987688 0 -0.156437
    outer loop
      vertex -1.18882 0 -0.636271
      vertex -1.25 61 -0.25
      vertex -1.18882 61 -0.636271
    endloop
  endfacet
  facet normal -0.987688 -0 -0.156437
    outer loop
      vertex -1.25 61 -0.25
      vertex -1.18882 0 -0.636271
      vertex -1.25 0 -0.25
    endloop
  endfacet
  facet normal -0.453991 0 -0.891006
    outer loop
      vertex -0.734731 0 -1.26127
      vertex -0.386271 61 -1.43882
      vertex -0.386271 0 -1.43882
    endloop
  endfacet
  facet normal -0.453991 0 -0.891006
    outer loop
      vertex -0.386271 61 -1.43882
      vertex -0.734731 0 -1.26127
      vertex -0.734731 61 -1.26127
    endloop
  endfacet
  facet normal -0.707107 0 -0.707107
    outer loop
      vertex -0.734731 0 -1.26127
      vertex -1.01127 61 -0.984731
      vertex -0.734731 61 -1.26127
    endloop
  endfacet
  facet normal -0.707107 -0 -0.707107
    outer loop
      vertex -1.01127 61 -0.984731
      vertex -0.734731 0 -1.26127
      vertex -1.01127 0 -0.984731
    endloop
  endfacet
  facet normal -0.156437 0 -0.987688
    outer loop
      vertex -0.386271 0 -1.43882
      vertex 0 61 -1.5
      vertex 0 0 -1.5
    endloop
  endfacet
  facet normal -0.156437 0 -0.987688
    outer loop
      vertex 0 61 -1.5
      vertex -0.386271 0 -1.43882
      vertex -0.386271 61 -1.43882
    endloop
  endfacet
  facet normal -0.156434 1.54415e-008 0.987688
    outer loop
      vertex 0 61 0.999999
      vertex -0.386271 61 0.93882
      vertex 0 0 1
    endloop
  endfacet
  facet normal -0.987688 0 0.156437
    outer loop
      vertex -1.25 0 -0.25
      vertex -1.18882 61 0.136271
      vertex -1.25 61 -0.25
    endloop
  endfacet
  facet normal -0.987688 0 0.156437
    outer loop
      vertex -1.18882 61 0.136271
      vertex -1.25 0 -0.25
      vertex -1.18882 0 0.136271
    endloop
  endfacet
  facet normal -0.891006 0 -0.453991
    outer loop
      vertex -1.01127 0 -0.984731
      vertex -1.18882 61 -0.636271
      vertex -1.01127 61 -0.984731
    endloop
  endfacet
  facet normal -0.891006 -0 -0.453991
    outer loop
      vertex -1.18882 61 -0.636271
      vertex -1.01127 0 -0.984731
      vertex -1.18882 0 -0.636271
    endloop
  endfacet
  facet normal -0.707107 0 0.707107
    outer loop
      vertex -1.01127 0 0.484731
      vertex -0.734731 61 0.761271
      vertex -1.01127 61 0.484731
    endloop
  endfacet
  facet normal -0.707107 0 0.707107
    outer loop
      vertex -0.734731 61 0.761271
      vertex -1.01127 0 0.484731
      vertex -0.734731 0 0.761271
    endloop
  endfacet
  facet normal -0.453991 0 0.891006
    outer loop
      vertex -0.734731 61 0.761271
      vertex -0.386271 0 0.93882
      vertex -0.386271 61 0.93882
    endloop
  endfacet
  facet normal -0.453991 0 0.891006
    outer loop
      vertex -0.386271 0 0.93882
      vertex -0.734731 61 0.761271
      vertex -0.734731 0 0.761271
    endloop
  endfacet
  facet normal -0.156437 0 0.987688
    outer loop
      vertex -0.386271 61 0.93882
      vertex -0.386271 0 0.93882
      vertex 0 0 1
    endloop
  endfacet
  facet normal -0.891006 0 0.453991
    outer loop
      vertex -1.18882 0 0.136271
      vertex -1.01127 61 0.484731
      vertex -1.18882 61 0.136271
    endloop
  endfacet
  facet normal -0.891006 0 0.453991
    outer loop
      vertex -1.01127 61 0.484731
      vertex -1.18882 0 0.136271
      vertex -1.01127 0 0.484731
    endloop
  endfacet
  facet normal 0 0 -1
    outer loop
      vertex 3 0 13.5
      vertex 23.5 61 13.5
      vertex 23.5 0 13.5
    endloop
  endfacet
  facet normal -0 0 -1
    outer loop
      vertex 23.5 61 13.5
      vertex 3 0 13.5
      vertex 3 61 13.5
    endloop
  endfacet
  facet normal 1 0 0
    outer loop
      vertex 1.5 0 12
      vertex 1.5 61 -1.5
      vertex 1.5 61 12
    endloop
  endfacet
  facet normal 1 0 0
    outer loop
      vertex 1.5 61 -1.5
      vertex 1.5 0 12
      vertex 1.5 0 -1.5
    endloop
  endfacet
  facet normal 0 0 -1
    outer loop
      vertex 0 0 -1.5
      vertex 1.5 61 -1.5
      vertex 1.5 0 -1.5
    endloop
  endfacet
  facet normal -0 0 -1
    outer loop
      vertex 1.5 61 -1.5
      vertex 0 0 -1.5
      vertex 0 61 -1.5
    endloop
  endfacet
  facet normal -0 0 1
    outer loop
      vertex -3.25 60 4.5
      vertex 0 41 4.5
      vertex 0 60 4.5
    endloop
  endfacet
  facet normal 0 0 1
    outer loop
      vertex 0 41 4.5
      vertex -3.25 60 4.5
      vertex -3.25 41 4.5
    endloop
  endfacet
  facet normal -0 0 1
    outer loop
      vertex -3.25 40 4.5
      vertex 0 21 4.5
      vertex 0 40 4.5
    endloop
  endfacet
  facet normal 0 0 1
    outer loop
      vertex 0 21 4.5
      vertex -3.25 40 4.5
      vertex -3.25 21 4.5
    endloop
  endfacet
  facet normal -0 0 1
    outer loop
      vertex -3.25 20 4.5
      vertex 0 1 4.5
      vertex 0 20 4.5
    endloop
  endfacet
  facet normal 0 0 1
    outer loop
      vertex 0 1 4.5
      vertex -3.25 20 4.5
      vertex -3.25 1 4.5
    endloop
  endfacet
  facet normal 0 0 -1
    outer loop
      vertex -3.25 0 3
      vertex 0 61 3
      vertex 0 0 3
    endloop
  endfacet
  facet normal -0 0 -1
    outer loop
      vertex 0 61 3
      vertex -3.25 0 3
      vertex -3.25 61 3
    endloop
  endfacet
  facet normal 0.957826 -0 0.287348
    outer loop
      vertex 26.6 60 15
      vertex 29.75 61 4.5
      vertex 26.6 61 15
    endloop
  endfacet
  facet normal 0.957826 0 0.287348
    outer loop
      vertex 29.75 61 4.5
      vertex 26.6 60 15
      vertex 29.75 60 4.5
    endloop
  endfacet
  facet normal 1 -0 0
    outer loop
      vertex 26.5 0 3
      vertex 26.5 61 1
      vertex 26.5 61 3
    endloop
  endfacet
  facet normal 1 0 0
    outer loop
      vertex 26.5 61 1
      vertex 26.5 0 3
      vertex 26.5 0 0.999999
    endloop
  endfacet
  facet normal 1 -0 0
    outer loop
      vertex 26.5 1 13.5
      vertex 26.5 20 4.5
      vertex 26.5 20 13.5
    endloop
  endfacet
  facet normal 1 0 0
    outer loop
      vertex 26.5 20 4.5
      vertex 26.5 1 13.5
      vertex 26.5 1 4.5
    endloop
  endfacet
  facet normal 1 0 0
    outer loop
      vertex 26.5 21 13.5
      vertex 26.5 40 4.5
      vertex 26.5 40 13.5
    endloop
  endfacet
  facet normal 1 0 0
    outer loop
      vertex 26.5 40 4.5
      vertex 26.5 21 13.5
      vertex 26.5 21 4.5
    endloop
  endfacet
  facet normal 1 -0 0
    outer loop
      vertex 26.5 41 13.5
      vertex 26.5 60 4.5
      vertex 26.5 60 13.5
    endloop
  endfacet
  facet normal 1 0 0
    outer loop
      vertex 26.5 60 4.5
      vertex 26.5 41 13.5
      vertex 26.5 41 4.5
    endloop
  endfacet
  facet normal 1 -0 0
    outer loop
      vertex 29.75 60 4.5
      vertex 29.75 61 3
      vertex 29.75 61 4.5
    endloop
  endfacet
  facet normal 1 -0 0
    outer loop
      vertex 29.75 41 4.5
      vertex 29.75 61 3
      vertex 29.75 60 4.5
    endloop
  endfacet
  facet normal 1 -0 0
    outer loop
      vertex 29.75 40 4.5
      vertex 29.75 61 3
      vertex 29.75 41 4.5
    endloop
  endfacet
  facet normal 1 -0 0
    outer loop
      vertex 29.75 21 4.5
      vertex 29.75 61 3
      vertex 29.75 40 4.5
    endloop
  endfacet
  facet normal 1 0 0
    outer loop
      vertex 29.75 -3.97997e-016 3
      vertex 29.75 21 4.5
      vertex 29.75 20 4.5
    endloop
  endfacet
  facet normal 1 0 0
    outer loop
      vertex 29.75 -3.97997e-016 3
      vertex 29.75 20 4.5
      vertex 29.75 1 4.5
    endloop
  endfacet
  facet normal 1 0 0
    outer loop
      vertex 29.75 -3.97997e-016 3
      vertex 29.75 1 4.5
      vertex 29.75 -3.97997e-016 4.5
    endloop
  endfacet
  facet normal 1 0 0
    outer loop
      vertex 29.75 21 4.5
      vertex 29.75 -3.97997e-016 3
      vertex 29.75 61 3
    endloop
  endfacet
  facet normal 0 1 0
    outer loop
      vertex 26.6 61 15
      vertex 26.5 61 13.5
      vertex 26.5 61 15
    endloop
  endfacet
  facet normal 0 1 0
    outer loop
      vertex 29.75 61 4.5
      vertex 26.5 61 13.5
      vertex 26.6 61 15
    endloop
  endfacet
  facet normal 0 1 0
    outer loop
      vertex 26.5 61 3
      vertex 26.5 61 13.5
      vertex 29.75 61 4.5
    endloop
  endfacet
  facet normal 0 1 0
    outer loop
      vertex 26.5 61 3
      vertex 29.75 61 4.5
      vertex 29.75 61 3
    endloop
  endfacet
  facet normal 0 1 0
    outer loop
      vertex 26.5 61 13.5
      vertex 26.5 61 3
      vertex 25 61 13.5
    endloop
  endfacet
  facet normal 0 1 0
    outer loop
      vertex 25 61 -1.5
      vertex 26.5 61 3
      vertex 26.5 61 1
    endloop
  endfacet
  facet normal 0 1 0
    outer loop
      vertex 27.2347 61 0.761271
      vertex 26.5 61 1
      vertex 26.8863 61 0.93882
    endloop
  endfacet
  facet normal 0 1 0
    outer loop
      vertex 27.5113 61 0.484731
      vertex 26.5 61 1
      vertex 27.2347 61 0.761271
    endloop
  endfacet
  facet normal 0 1 0
    outer loop
      vertex 27.6888 61 0.136271
      vertex 26.5 61 1
      vertex 27.5113 61 0.484731
    endloop
  endfacet
  facet normal 0 1 0
    outer loop
      vertex 27.75 61 -0.25
      vertex 26.5 61 1
      vertex 27.6888 61 0.136271
    endloop
  endfacet
  facet normal 0 1 -0
    outer loop
      vertex 27.6888 61 -0.636271
      vertex 26.5 61 1
      vertex 27.75 61 -0.25
    endloop
  endfacet
  facet normal 0 1 -0
    outer loop
      vertex 27.5113 61 -0.984731
      vertex 26.5 61 1
      vertex 27.6888 61 -0.636271
    endloop
  endfacet
  facet normal 0 1 -0
    outer loop
      vertex 27.2347 61 -1.26127
      vertex 26.5 61 1
      vertex 27.5113 61 -0.984731
    endloop
  endfacet
  facet normal 0 1 -0
    outer loop
      vertex 26.8863 61 -1.43882
      vertex 26.5 61 1
      vertex 27.2347 61 -1.26127
    endloop
  endfacet
  facet normal 0 1 0
    outer loop
      vertex 26.5 61 -1.5
      vertex 26.5 61 1
      vertex 26.8863 61 -1.43882
    endloop
  endfacet
  facet normal 0 1 0
    outer loop
      vertex 25 61 -1.5
      vertex 26.5 61 1
      vertex 26.5 61 -1.5
    endloop
  endfacet
  facet normal 0 1 0
    outer loop
      vertex 26.5 61 3
      vertex 25 61 -1.5
      vertex 25 61 13.5
    endloop
  endfacet
  facet normal 0 -1 0
    outer loop
      vertex 26.5 60 13.5
      vertex 26.6 60 15
      vertex 26.5 60 15
    endloop
  endfacet
  facet normal 0 -1 0
    outer loop
      vertex 29.75 60 4.5
      vertex 26.5 60 13.5
      vertex 26.5 60 4.5
    endloop
  endfacet
  facet normal 0 -1 0
    outer loop
      vertex 26.5 60 13.5
      vertex 29.75 60 4.5
      vertex 26.6 60 15
    endloop
  endfacet
  facet normal 0.957826 -0 0.287348
    outer loop
      vertex 26.6 40 15
      vertex 29.75 41 4.5
      vertex 26.6 41 15
    endloop
  endfacet
  facet normal 0.957826 0 0.287348
    outer loop
      vertex 29.75 41 4.5
      vertex 26.6 40 15
      vertex 29.75 40 4.5
    endloop
  endfacet
  facet normal 0 1 0
    outer loop
      vertex 26.6 41 15
      vertex 26.5 41 13.5
      vertex 26.5 41 15
    endloop
  endfacet
  facet normal 0 1 0
    outer loop
      vertex 29.75 41 4.5
      vertex 26.5 41 13.5
      vertex 26.6 41 15
    endloop
  endfacet
  facet normal 0 1 0
    outer loop
      vertex 26.5 41 13.5
      vertex 29.75 41 4.5
      vertex 26.5 41 4.5
    endloop
  endfacet
  facet normal 0 -1 0
    outer loop
      vertex 26.5 40 13.5
      vertex 26.6 40 15
      vertex 26.5 40 15
    endloop
  endfacet
  facet normal 0 -1 0
    outer loop
      vertex 29.75 40 4.5
      vertex 26.5 40 13.5
      vertex 26.5 40 4.5
    endloop
  endfacet
  facet normal 0 -1 0
    outer loop
      vertex 26.5 40 13.5
      vertex 29.75 40 4.5
      vertex 26.6 40 15
    endloop
  endfacet
  facet normal 0.957826 -0 0.287348
    outer loop
      vertex 26.6 20 15
      vertex 29.75 21 4.5
      vertex 26.6 21 15
    endloop
  endfacet
  facet normal 0.957826 0 0.287348
    outer loop
      vertex 29.75 21 4.5
      vertex 26.6 20 15
      vertex 29.75 20 4.5
    endloop
  endfacet
  facet normal 0 1 0
    outer loop
      vertex 26.6 21 15
      vertex 26.5 21 13.5
      vertex 26.5 21 15
    endloop
  endfacet
  facet normal 0 1 0
    outer loop
      vertex 29.75 21 4.5
      vertex 26.5 21 13.5
      vertex 26.6 21 15
    endloop
  endfacet
  facet normal 0 1 0
    outer loop
      vertex 26.5 21 13.5
      vertex 29.75 21 4.5
      vertex 26.5 21 4.5
    endloop
  endfacet
  facet normal 0 -1 0
    outer loop
      vertex 26.5 20 13.5
      vertex 26.6 20 15
      vertex 26.5 20 15
    endloop
  endfacet
  facet normal 0 -1 0
    outer loop
      vertex 29.75 20 4.5
      vertex 26.5 20 13.5
      vertex 26.5 20 4.5
    endloop
  endfacet
  facet normal 0 -1 0
    outer loop
      vertex 26.5 20 13.5
      vertex 29.75 20 4.5
      vertex 26.6 20 15
    endloop
  endfacet
  facet normal 0.957826 -0 0.287348
    outer loop
      vertex 26.6 -1.2246e-017 15
      vertex 29.75 1 4.5
      vertex 26.6 1 15
    endloop
  endfacet
  facet normal 0.957826 0 0.287348
    outer loop
      vertex 29.75 1 4.5
      vertex 26.6 -1.2246e-017 15
      vertex 29.75 -3.97997e-016 4.5
    endloop
  endfacet
  facet normal 0 1 0
    outer loop
      vertex 26.6 1 15
      vertex 26.5 1 13.5
      vertex 26.5 1 15
    endloop
  endfacet
  facet normal 0 1 0
    outer loop
      vertex 29.75 1 4.5
      vertex 26.5 1 13.5
      vertex 26.6 1 15
    endloop
  endfacet
  facet normal 0 1 0
    outer loop
      vertex 26.5 1 13.5
      vertex 29.75 1 4.5
      vertex 26.5 1 4.5
    endloop
  endfacet
  facet normal -1.22462e-016 -1 0
    outer loop
      vertex 26.5 0 13.5
      vertex 26.6 -1.2246e-017 15
      vertex 26.5 0 15
    endloop
  endfacet
  facet normal -1.22461e-016 -1 -6.58702e-023
    outer loop
      vertex 26.5 0 13.5
      vertex 29.75 -3.97997e-016 4.5
      vertex 26.6 -1.2246e-017 15
    endloop
  endfacet
  facet normal -1.22461e-016 -1 0
    outer loop
      vertex 25 1.83691e-016 12
      vertex 29.75 -3.97997e-016 4.5
      vertex 26.5 0 13.5
    endloop
  endfacet
  facet normal -1.22461e-016 -1 0
    outer loop
      vertex 25 1.83691e-016 12
      vertex 26.5 0 3
      vertex 29.75 -3.97997e-016 4.5
    endloop
  endfacet
  facet normal -1.22461e-016 -1 0
    outer loop
      vertex 25 1.83691e-016 -1.5
      vertex 26.5 0 3
      vertex 25 1.83691e-016 12
    endloop
  endfacet
  facet normal -1.2246e-016 -1 9.8576e-022
    outer loop
      vertex 26.5 0 0.999999
      vertex 27.2347 -8.99756e-017 0.761271
      vertex 26.8863 -4.73029e-017 0.93882
    endloop
  endfacet
  facet normal -1.22461e-016 -1 -8.40383e-022
    outer loop
      vertex 26.5 0 0.999999
      vertex 27.5113 -1.23841e-016 0.484731
      vertex 27.2347 -8.99756e-017 0.761271
    endloop
  endfacet
  facet normal -1.22461e-016 -1 -8.65792e-024
    outer loop
      vertex 26.5 0 0.999999
      vertex 27.6888 -1.45584e-016 0.136271
      vertex 27.5113 -1.23841e-016 0.484731
    endloop
  endfacet
  facet normal -1.22461e-016 -1 -1.14501e-023
    outer loop
      vertex 26.5 0 0.999999
      vertex 27.75 -1.53076e-016 -0.25
      vertex 27.6888 -1.45584e-016 0.136271
    endloop
  endfacet
  facet normal -1.22461e-016 -1 8.31894e-024
    outer loop
      vertex 26.5 0 0.999999
      vertex 27.6888 -1.45584e-016 -0.636271
      vertex 27.75 -1.53076e-016 -0.25
    endloop
  endfacet
  facet normal -1.22461e-016 -1 3.20509e-024
    outer loop
      vertex 26.5 0 0.999999
      vertex 27.5113 -1.23841e-016 -0.984731
      vertex 27.6888 -1.45584e-016 -0.636271
    endloop
  endfacet
  facet normal -1.2246e-016 -1 1.39129e-022
    outer loop
      vertex 26.5 0 0.999999
      vertex 27.2347 -8.99756e-017 -1.26127
      vertex 27.5113 -1.23841e-016 -0.984731
    endloop
  endfacet
  facet normal -1.22461e-016 -1 -5.07296e-023
    outer loop
      vertex 26.5 0 0.999999
      vertex 26.8863 -4.73029e-017 -1.43882
      vertex 27.2347 -8.99756e-017 -1.26127
    endloop
  endfacet
  facet normal -1.22461e-016 -1 -0
    outer loop
      vertex 26.5 0 3
      vertex 25 1.83691e-016 -1.5
      vertex 26.5 0 0.999999
    endloop
  endfacet
  facet normal -1.22461e-016 -1 0
    outer loop
      vertex 26.5 0 -1.5
      vertex 26.5 0 0.999999
      vertex 25 1.83691e-016 -1.5
    endloop
  endfacet
  facet normal -1.22461e-016 -1 -0
    outer loop
      vertex 26.5 0 0.999999
      vertex 26.5 0 -1.5
      vertex 26.8863 -4.73029e-017 -1.43882
    endloop
  endfacet
  facet normal -1.22461e-016 -1 -0
    outer loop
      vertex 29.75 -3.97997e-016 4.5
      vertex 26.5 0 3
      vertex 29.75 -3.97997e-016 3
    endloop
  endfacet
  facet normal 0.987688 0 -0.156437
    outer loop
      vertex 27.75 61 -0.25
      vertex 27.6888 -1.45584e-016 -0.636271
      vertex 27.6888 61 -0.636271
    endloop
  endfacet
  facet normal 0.987688 0 -0.156437
    outer loop
      vertex 27.6888 -1.45584e-016 -0.636271
      vertex 27.75 61 -0.25
      vertex 27.75 -1.53076e-016 -0.25
    endloop
  endfacet
  facet normal 0.453992 0 -0.891006
    outer loop
      vertex 26.8863 -4.73029e-017 -1.43882
      vertex 27.2347 61 -1.26127
      vertex 27.2347 -8.99756e-017 -1.26127
    endloop
  endfacet
  facet normal 0.453992 0 -0.891006
    outer loop
      vertex 27.2347 61 -1.26127
      vertex 26.8863 -4.73029e-017 -1.43882
      vertex 26.8863 61 -1.43882
    endloop
  endfacet
  facet normal 0.707106 0 -0.707108
    outer loop
      vertex 27.2347 -8.99756e-017 -1.26127
      vertex 27.5113 61 -0.984731
      vertex 27.5113 -1.23841e-016 -0.984731
    endloop
  endfacet
  facet normal 0.707106 0 -0.707108
    outer loop
      vertex 27.5113 61 -0.984731
      vertex 27.2347 -8.99756e-017 -1.26127
      vertex 27.2347 61 -1.26127
    endloop
  endfacet
  facet normal 0.156437 0 -0.987688
    outer loop
      vertex 26.5 0 -1.5
      vertex 26.8863 61 -1.43882
      vertex 26.8863 -4.73029e-017 -1.43882
    endloop
  endfacet
  facet normal 0.156437 0 -0.987688
    outer loop
      vertex 26.8863 61 -1.43882
      vertex 26.5 0 -1.5
      vertex 26.5 61 -1.5
    endloop
  endfacet
  facet normal 0.156434 -1.54415e-008 0.987688
    outer loop
      vertex 26.5 61 1
      vertex 26.5 0 0.999999
      vertex 26.8863 -4.73029e-017 0.93882
    endloop
  endfacet
  facet normal 0.987688 -0 0.156437
    outer loop
      vertex 27.6888 -1.45584e-016 0.136271
      vertex 27.75 61 -0.25
      vertex 27.6888 61 0.136271
    endloop
  endfacet
  facet normal 0.987688 0 0.156437
    outer loop
      vertex 27.75 61 -0.25
      vertex 27.6888 -1.45584e-016 0.136271
      vertex 27.75 -1.53076e-016 -0.25
    endloop
  endfacet
  facet normal 0.891006 0 -0.453991
    outer loop
      vertex 27.6888 61 -0.636271
      vertex 27.5113 -1.23841e-016 -0.984731
      vertex 27.5113 61 -0.984731
    endloop
  endfacet
  facet normal 0.891006 0 -0.453991
    outer loop
      vertex 27.5113 -1.23841e-016 -0.984731
      vertex 27.6888 61 -0.636271
      vertex 27.6888 -1.45584e-016 -0.636271
    endloop
  endfacet
  facet normal 0.707106 0 0.707108
    outer loop
      vertex 27.2347 61 0.761271
      vertex 27.5113 -1.23841e-016 0.484731
      vertex 27.5113 61 0.484731
    endloop
  endfacet
  facet normal 0.707106 0 0.707108
    outer loop
      vertex 27.5113 -1.23841e-016 0.484731
      vertex 27.2347 61 0.761271
      vertex 27.2347 -8.99756e-017 0.761271
    endloop
  endfacet
  facet normal 0.453992 0 0.891006
    outer loop
      vertex 26.8863 61 0.93882
      vertex 27.2347 -8.99756e-017 0.761271
      vertex 27.2347 61 0.761271
    endloop
  endfacet
  facet normal 0.453992 0 0.891006
    outer loop
      vertex 27.2347 -8.99756e-017 0.761271
      vertex 26.8863 61 0.93882
      vertex 26.8863 -4.73029e-017 0.93882
    endloop
  endfacet
  facet normal 0.156437 0 0.987688
    outer loop
      vertex 26.8863 61 0.93882
      vertex 26.5 61 1
      vertex 26.8863 -4.73029e-017 0.93882
    endloop
  endfacet
  facet normal 0.891006 -0 0.453991
    outer loop
      vertex 27.5113 -1.23841e-016 0.484731
      vertex 27.6888 61 0.136271
      vertex 27.5113 61 0.484731
    endloop
  endfacet
  facet normal 0.891006 0 0.453991
    outer loop
      vertex 27.6888 61 0.136271
      vertex 27.5113 -1.23841e-016 0.484731
      vertex 27.6888 -1.45584e-016 0.136271
    endloop
  endfacet
  facet normal -1 0 0
    outer loop
      vertex 25 1.83691e-016 -1.5
      vertex 25 61 12
      vertex 25 61 -1.5
    endloop
  endfacet
  facet normal -1 -0 0
    outer loop
      vertex 25 61 12
      vertex 25 1.83691e-016 -1.5
      vertex 25 1.83691e-016 12
    endloop
  endfacet
  facet normal 0 0 0
    outer loop
      vertex 25 61 -1.5
      vertex 25 61 12
      vertex 25 61 13.5
    endloop
  endfacet
  facet normal 0 0 -1
    outer loop
      vertex 25 1.83691e-016 -1.5
      vertex 26.5 61 -1.5
      vertex 26.5 0 -1.5
    endloop
  endfacet
  facet normal -0 0 -1
    outer loop
      vertex 26.5 61 -1.5
      vertex 25 1.83691e-016 -1.5
      vertex 25 61 -1.5
    endloop
  endfacet
  facet normal -0 0 1
    outer loop
      vertex 26.5 20 4.5
      vertex 29.75 1 4.5
      vertex 29.75 20 4.5
    endloop
  endfacet
  facet normal 0 0 1
    outer loop
      vertex 29.75 1 4.5
      vertex 26.5 20 4.5
      vertex 26.5 1 4.5
    endloop
  endfacet
  facet normal -0 0 1
    outer loop
      vertex 26.5 40 4.5
      vertex 29.75 21 4.5
      vertex 29.75 40 4.5
    endloop
  endfacet
  facet normal 0 0 1
    outer loop
      vertex 29.75 21 4.5
      vertex 26.5 40 4.5
      vertex 26.5 21 4.5
    endloop
  endfacet
  facet normal -0 0 1
    outer loop
      vertex 26.5 60 4.5
      vertex 29.75 41 4.5
      vertex 29.75 60 4.5
    endloop
  endfacet
  facet normal 0 0 1
    outer loop
      vertex 29.75 41 4.5
      vertex 26.5 60 4.5
      vertex 26.5 41 4.5
    endloop
  endfacet
  facet normal 0 0 -1
    outer loop
      vertex 26.5 0 3
      vertex 29.75 61 3
      vertex 29.75 -3.97997e-016 3
    endloop
  endfacet
  facet normal -0 0 -1
    outer loop
      vertex 29.75 61 3
      vertex 26.5 0 3
      vertex 26.5 61 3
    endloop
  endfacet
  facet normal 1 -0 0
    outer loop
      vertex 26.5 1 15
      vertex 26.5 20 13.5
      vertex 26.5 20 15
    endloop
  endfacet
  facet normal 1 0 0
    outer loop
      vertex 26.5 20 13.5
      vertex 26.5 1 15
      vertex 26.5 1 13.5
    endloop
  endfacet
  facet normal 1 -0 0
    outer loop
      vertex 26.5 21 15
      vertex 26.5 40 13.5
      vertex 26.5 40 15
    endloop
  endfacet
  facet normal 1 0 0
    outer loop
      vertex 26.5 40 13.5
      vertex 26.5 21 15
      vertex 26.5 21 13.5
    endloop
  endfacet
  facet normal 1 -0 0
    outer loop
      vertex 26.5 41 15
      vertex 26.5 60 13.5
      vertex 26.5 60 15
    endloop
  endfacet
  facet normal 1 0 0
    outer loop
      vertex 26.5 60 13.5
      vertex 26.5 41 15
      vertex 26.5 41 13.5
    endloop
  endfacet
  facet normal 0.707107 -1.10549e-008 -0.707107
    outer loop
      vertex 3 0 13.5
      vertex 1.5 61 12
      vertex 3 61 13.5
    endloop
  endfacet
  facet normal 0.707107 -1.10549e-008 -0.707107
    outer loop
      vertex 1.5 61 12
      vertex 3 0 13.5
      vertex 1.5 0 12
    endloop
  endfacet
  facet normal -0.707107 -1.10549e-008 -0.707107
    outer loop
      vertex 25 1.83691e-016 12
      vertex 23.5 61 13.5
      vertex 25 61 12
    endloop
  endfacet
  facet normal -0.707107 0 -0.707107
    outer loop
      vertex 23.5 0 13.5
      vertex 25 1.83691e-016 12
      vertex 25 0 12
    endloop
  endfacet
  facet normal -0.707107 -1.10549e-008 -0.707107
    outer loop
      vertex 25 1.83691e-016 12
      vertex 23.5 0 13.5
      vertex 23.5 61 13.5
    endloop
  endfacet
  facet normal 0.707107 0 -0.707107
    outer loop
      vertex 26.5 0 13.5
      vertex 25 0 12
      vertex 25 1.83691e-016 12
    endloop
  endfacet
endsolid OpenSCAD_Model
